# xmcd CD database file
#
# Track frame offsets:
#	150
#	12065
#	23795
#	35787
#	48900
#	60635
#	75357
#	85632
#	100157
#	111715
#	125457
#	142037
#	153467
#	167105
#	179807
#	192305
#	202950
#	213780
#	223217
#	237320
#
# Disc length: 3405 seconds
#
# Revision: 4
# Processed by: cddbd v1.5.2PL0 Copyright (c) Steve Scherf et al.
# Submitted via: CDex 1.51
#
DISCID=1b0d4b14
DTITLE=Johnny Cash - Itchy Feet - 20 Foot-Tappin' Greats
DYEAR=1978
DGENRE=Country
TTITLE0=Folsom Prison Blues
TTITLE1=I Walk The Line
TTITLE2=Ring of Fire
TTITLE3=Forty Shades of Green
TTITLE4=I Still Miss Someone
TTITLE5=There Ain't no Good Chain Gang
TTITLE6=Busted
TTITLE7=25 Minutes to Go
TTITLE8=A Thing Called Love
TTITLE9=It Ain't me Babe
TTITLE10=A Boy Named Sue
TTITLE11=San Quentin
TTITLE12=Don't Take Your Guns to Town
TTITLE13=The One on The Right is on The Left
TTITLE14=Jackson
TTITLE15=Hey Porter
TTITLE16=Daddy Sang Bass
TTITLE17=I Got Stripes
TTITLE18=Orange Blossom Special
TTITLE19=One Piece at a Time
EXTD=Label: Columbia\nCB 701\n YEAR: 1978
EXTT0=
EXTT1=
EXTT2=
EXTT3=
EXTT4=
EXTT5=
EXTT6=
EXTT7=
EXTT8=
EXTT9=
EXTT10=
EXTT11=
EXTT12=
EXTT13=
EXTT14=
EXTT15=
EXTT16=
EXTT17=
EXTT18=
EXTT19=
PLAYORDER=
